<svg xmlns="http://www.w3.org/2000/svg" viewBox="0 0 120 120" fill="none">
  <g stroke="currentColor" stroke-width="4.2" stroke-linecap="round" stroke-linejoin="round">
    <path d="M33 67c0-16 12-29 27-29h1c15 0 27 13 27 29s-12 27-27 27h-1c-15 0-27-11-27-27Z"/>
    <path d="M42 51c5-7 11-12 20-14"/>
    <path d="M78 37c9 2 16 7 20 14"/>
    <path d="M30 52c-7-5-9-14-6-22 5 1 11 4 15 9"/>
    <path d="M90 39c4-5 10-8 15-9 3 8 1 17-6 22"/>
    <path d="M38 84 24 96"/>
    <path d="M49 90 38 102"/>
    <path d="M72 90 83 102"/>
    <path d="M83 84 96 96"/>
    <circle cx="52" cy="63" r="5.5"/>
    <circle cx="69" cy="63" r="5.5"/>
  </g>
</svg>
