<svg xmlns="http://www.w3.org/2000/svg" viewBox="0 0 120 120" fill="none">
  <g stroke="currentColor" stroke-width="4.2" stroke-linecap="round" stroke-linejoin="round">
    <path d="M33 68c0-17 12-30 27-30h1c15 0 27 13 27 30s-12 26-27 26h-1c-15 0-27-10-27-26Z"/>
    <path d="M44 51c5-7 11-11 18-14"/>
    <path d="M77 37c7 2 14 7 19 14"/>
    <path d="M29 54c-9-5-11-15-8-24 6 1 12 4 16 9"/>
    <path d="M91 39c4-5 10-8 16-9 3 9 1 19-8 24"/>
    <path d="M38 84 23 95"/>
    <path d="M49 89 38 102"/>
    <path d="M72 89 84 102"/>
    <path d="M83 84 97 95"/>
    <circle cx="52" cy="63" r="5.2"/>
    <circle cx="69" cy="63" r="5.2"/>
  </g>
</svg>
