<svg xmlns="http://www.w3.org/2000/svg" viewBox="0 0 120 120" fill="none">
  <g stroke="currentColor" stroke-width="4.15" stroke-linecap="round" stroke-linejoin="round">
    <path d="M33 69c0-16 12-28 27-28h1c15 0 27 12 27 28s-12 25-27 25h-1c-15 0-27-9-27-25Z"/>
    <path d="M44 53c5-6 10-10 18-13"/>
    <path d="M77 40c8 3 14 7 18 13"/>
    <path d="M29 55c-8-5-10-14-7-22 6 2 11 4 15 8"/>
    <path d="M91 41c4-4 9-6 15-8 3 8 1 17-7 22"/>
    <path d="M38 84 24 97"/>
    <path d="M49 90 38 103"/>
    <path d="M71 90 83 103"/>
    <path d="M82 84 96 97"/>
    <circle cx="52" cy="65" r="5.2"/>
    <circle cx="69" cy="65" r="5.2"/>
  </g>
</svg>
